# xmcd
#
# Track frame offsets:
#	150
#	2160
#	7694
#	17616
#	22662
#	33211
#	43025
#	47002
#	51121
#	58124
#	64657
#	69139
#	75672
#	82146
#	85276
#	87466
#	89750
#	91961
#	94652
#	97974
#	101804
#	107407
#	113153
#	115942
#	118623
#	121966
#	125431
#	128788
#	132124
#	134202
#	135559
#	136944
#	138451
#	139892
#	142037
#	146108
#	152568
#	158997
#	163113
#	169538
#	175963
#	177463
#	178761
#	180073
#	181413
#	182628
#	183801
#	187607
#	191166
#	194791
#	198405
#	207084
#	216010
#	218869
#	220693
#	222827
#	228528
#	235368
#	237056
#	238351
#	239649
#	240797
#	242019
#	243251
#	246949
#	256808
#	266685
#	279296
#	283313
#	289886
#	296874
#	302406
#	306942
#	310980
#	314767
#	320837
#	330275
#	336714
#	344903
#
# Disc length: 4681 seconds
# Revision: 0
# Processed by: cddbd v1.5.2PL0 Copyright (c) Steve Scherf et al.
# Submitted via: dBpowerAMP V12.0
#
DISCID=9d12474f
DTITLE=House of Blues - Blues Guitar Course Disc 1
DYEAR=1900
DGENRE=Blues
TTITLE0=Introduction
TTITLE1=Tuning
TTITLE2=Parts of the Guitar
TTITLE3=Reading a Chord Chart
TTITLE4=Open Major Chords
TTITLE5=Open Minor Chords
TTITLE6=Major Blues
TTITLE7=Minor Blues
TTITLE8=Major and Minor Blues BDR
TTITLE9=Major and Minor Blues BD
TTITLE10=Blues
TTITLE11=Blues BDR
TTITLE12=Blues BD
TTITLE13=1st Position A Minor Pentatonic Scale
TTITLE14=2nd Position A Minor Pentatonic Scale
TTITLE15=3rd Position A Minor Pentatonic Scale
TTITLE16=4th Position A Minor Pentatonic Scale
TTITLE17=5th Position A Minor Pentatonic Scale
TTITLE18=Double Lead Pattern (1st Position)
TTITLE19=Double Lead Pattern (2nd Position)
TTITLE20=Triplet Lead Pattern (1st Position)
TTITLE21=Triplet Lead Pattern (2nd Position)
TTITLE22=Lead Techniques - Bending
TTITLE23=Lead Techniques - Hammer Ons
TTITLE24=Lead Techniques - Pull Offs
TTITLE25=Complete Blues Lead
TTITLE26=Complete Blues Lead BDRL
TTITLE27=Complete Blues Lead BDR
TTITLE28=Blues Riffs - Riff #1
TTITLE29=Blues Riffs - Riff #2
TTITLE30=Blues Riffs - Riff #3
TTITLE31=Blues Riffs - Riff #4
TTITLE32=Blues Riffs - Riff #5
TTITLE33=The B.B. Box
TTITLE34=Shuffle Blues Rhythm
TTITLE35=Shuffle Blues Rhythm BDR
TTITLE36=Shuffle Blues Rhythm BD
TTITLE37=Full Blues Lead
TTITLE38=Full Blues Lead BDRL
TTITLE39=Full Blues Lead BDR
TTITLE40=F Major Barre Chord
TTITLE41=F Minor Barre Chord
TTITLE42=F7 Barre Chord
TTITLE43=B♭ Major Barre Chord
TTITLE44=B♭ Minor Barre Chord
TTITLE45=B♭7 Barre Chord
TTITLE46=12 Bar Blues Progression
TTITLE47=12 Bar Blues Progression BDR
TTITLE48=12 Bar Blues Progression BD
TTITLE49=Single Note Blues Rhythm
TTITLE50=Single Note Blues Rhythm BDR
TTITLE51=Single Note Blues Rhythm BD
TTITLE52=Lead Techniques - Slides
TTITLE53=Lead Techniques - Vibrato
TTITLE54=Rockin' the Blues
TTITLE55=Rockin' the Blues BDR
TTITLE56=Rockin' the Blues BD
TTITLE57=Blues Riffs Part 2 - Riff #1
TTITLE58=Blues Riffs Part 2 - Riff #2
TTITLE59=Blues Riffs Part 2 - Riff #3
TTITLE60=Blues Riffs Part 2 - Riff #4
TTITLE61=Blues Riffs Part 2 - Riff #5
TTITLE62=Blues Riffs Part 2 - Riff #6
TTITLE63=Open Chord Blues Progression in Em
TTITLE64=Open Chord Blues Progression in Em BDR
TTITLE65=Open Chord Blues Progression in Em BD
TTITLE66=Blues Scales - Key of E
TTITLE67=Open String Blues Rhythm in E
TTITLE68=Open String Blues Rhythm in E BDR
TTITLE69=Open String Blues Rhythm in E BD
TTITLE70=Advanced Bending Techniques
TTITLE71=Blues Lead in E
TTITLE72=Blues Lead in E BDRL
TTITLE73=Blues Lead in E BDR
TTITLE74=Basic Blues Rhythm (Key of A) BD
TTITLE75=Open Chord Blues Progression (Key of E) BD
TTITLE76=Rockin' the Blues (Key of A) BD
TTITLE77=Single Note Riff Rhythm (Key of D) BD
TTITLE78=Open String Blues Rhythm (Key of E) BD
EXTD=
EXTT0=
EXTT1=
EXTT2=
EXTT3=
EXTT4=
EXTT5=
EXTT6=
EXTT7=
EXTT8=
EXTT9=
EXTT10=
EXTT11=
EXTT12=
EXTT13=
EXTT14=
EXTT15=
EXTT16=
EXTT17=
EXTT18=
EXTT19=
EXTT20=
EXTT21=
EXTT22=
EXTT23=
EXTT24=
EXTT25=
EXTT26=
EXTT27=
EXTT28=
EXTT29=
EXTT30=
EXTT31=
EXTT32=
EXTT33=
EXTT34=
EXTT35=
EXTT36=
EXTT37=
EXTT38=
EXTT39=
EXTT40=
EXTT41=
EXTT42=
EXTT43=
EXTT44=
EXTT45=
EXTT46=
EXTT47=
EXTT48=
EXTT49=
EXTT50=
EXTT51=
EXTT52=
EXTT53=
EXTT54=
EXTT55=
EXTT56=
EXTT57=
EXTT58=
EXTT59=
EXTT60=
EXTT61=
EXTT62=
EXTT63=
EXTT64=
EXTT65=
EXTT66=
EXTT67=
EXTT68=
EXTT69=
EXTT70=
EXTT71=
EXTT72=
EXTT73=
EXTT74=
EXTT75=
EXTT76=
EXTT77=
EXTT78=
PLAYORDER=
